<svg width="26" height="32" viewBox="0 0 26 32" fill="none" xmlns="http://www.w3.org/2000/svg">
<path d="M15.0818 1.27404C15.0678 1.27276 15.055 1.2702 15.0423 1.26764C14.76 1.22412 14.4893 1.19212 14.3501 1.18317C14.2543 1.17805 14.0014 1.16909 13.9197 1.17037C13.4242 1.17421 12.9133 1.24716 12.3527 1.44043C11.3629 1.78217 10.4958 2.2775 9.78186 2.97506C9.57369 3.17728 9.20717 3.60222 8.9096 4.01691C8.49965 4.58776 8.2902 5.00373 8.03351 5.57074C7.31705 7.15016 7.19828 9.11101 7.84705 10.6751C8.38216 11.9972 9.46642 13.0122 10.8061 13.624C11.4153 13.9018 12.0551 14.1296 12.7166 14.2281C13.6017 14.3587 14.5084 14.3792 15.3066 14.2179C16.1955 14.0374 17.1252 13.6727 17.7931 13.0672C18.2146 12.6845 18.5147 12.2302 18.5505 11.6581C18.5722 11.3202 18.5083 11.0104 18.4049 10.7327C18.2337 10.2706 17.9911 9.95959 17.562 9.51674C16.6935 8.65663 15.442 8.12802 14.2338 7.85156C13.3999 7.67237 12.5353 7.63525 11.6809 7.64677C10.8904 7.66341 10.0973 7.73509 9.32466 7.89636C8.55712 8.06787 7.81384 8.34305 7.09356 8.65791C6.52269 8.90878 5.9531 9.207 5.42311 9.52442C4.61981 10.0057 3.41422 10.9362 2.69777 11.9473C1.73611 13.2055 1.28401 14.9551 1.53177 16.5205C1.65054 17.1822 1.96088 17.7774 2.39382 18.3252C3.4934 19.7036 5.17918 20.5228 6.88284 20.9823C9.89169 21.8232 13.0908 21.6248 16.1291 21.0322C18.6386 20.5228 21.7675 19.4425 23.6819 17.7364C24.0522 17.3844 24.4877 16.9301 24.5975 16.445C24.6972 15.9624 24.489 15.5145 24.0152 15.2738C23.8006 15.165 23.4596 15.078 23.2183 15.0562C22.5874 14.9986 21.9284 15.087 21.2745 15.2406C20.0459 15.5285 18.8787 16.0059 17.7472 16.5525C16.608 17.1041 15.5659 17.8209 14.5659 18.5914C13.5825 19.3337 12.6758 20.1887 11.967 21.1909C11.0577 22.4465 10.8636 23.7533 10.9926 25.0051C11.1343 26.3848 11.8725 27.7288 13.2505 28.6068C13.7703 28.9383 14.3437 29.1802 14.9311 29.3747C15.6553 29.6218 16.4088 29.7805 17.1469 29.5642C17.502 29.4707 17.9464 29.2647 17.917 28.8551C17.8595 28.4724 17.3972 28.2804 17.0396 28.2407C16.4471 28.155 15.8456 28.3162 15.3462 28.6388C14.7204 29.0496 14.1955 29.6474 13.8724 30.3155C13.6336 30.8262 13.5046 31.3868 13.5097 31.9371C13.5097 31.9947 13.4599 32.0011 13.4139 31.9999C13.3475 31.9973 13.2811 31.9922 13.216 31.9819C13.1011 31.964 12.9733 31.941 12.8635 31.9039C12.7958 31.8808 12.6643 31.8411 12.6783 31.7439C12.829 30.7187 13.1905 29.9379 13.889 29.1764C14.5787 28.4174 15.5097 27.7684 16.5773 27.748C17.2172 27.7339 17.9579 27.8951 18.2823 28.5031C18.4304 28.7898 18.3972 29.1482 18.2235 29.417C17.9081 29.8867 17.35 30.039 16.8315 30.1581C16.0473 30.2988 15.2287 30.1926 14.4573 30.0365C14.2057 29.9853 13.8763 29.879 13.6349 29.8035C13.1598 29.655 12.6988 29.4439 12.285 29.2173C11.4855 28.7809 10.9147 28.2625 10.4421 27.666C9.88531 26.9608 9.5954 26.134 9.46769 25.2969C9.19184 23.4884 9.91085 21.4712 11.5902 19.6665C12.2646 18.9165 13.073 18.2829 13.9031 17.7121C15.2594 16.7624 16.8468 15.8664 18.4036 15.2841C19.9668 14.7043 21.5031 14.2422 23.1978 14.3702C23.7534 14.4278 24.3127 14.5737 24.7712 14.9142C25.277 15.2828 25.5899 15.9292 25.5362 16.5538C25.4328 17.6519 24.6001 18.6029 23.8134 19.3005C23.0382 19.9827 22.1391 20.5049 21.2132 20.9375C19.6999 21.6581 18.0971 22.1982 16.4637 22.5694C13.8405 23.139 11.096 23.4103 8.42685 23.0046C6.39881 22.6807 4.32991 22.0472 2.6569 20.7826C1.36447 19.806 0.243173 18.384 0.0401133 16.7329C-0.18338 14.7823 0.542015 12.7997 1.84211 11.3432C2.70798 10.3129 3.80118 9.46298 4.96718 8.78463C5.86243 8.29442 6.76279 7.92452 7.71423 7.59046C8.97218 7.13864 10.8495 6.88778 11.6337 6.82762C12.4727 6.76363 13.9235 6.79819 14.6859 6.95434C15.5978 7.1412 16.5186 7.36263 17.5518 8.02435C17.9898 8.29697 18.4738 8.66303 18.7982 9.10077C19.0996 9.50778 19.3001 9.9276 19.3844 10.2207C19.5313 10.7288 19.5504 11.3509 19.4329 11.8155C19.2541 12.5258 18.7293 13.2196 18.1431 13.6829C17.3998 14.2704 16.4675 14.7132 15.4701 14.9961C14.0997 15.3852 12.6055 15.4082 11.2633 15.1446C10.1369 14.9193 9.17013 14.4803 8.38471 13.8813C7.35664 13.098 6.59038 11.9576 6.23918 10.7403C5.88797 9.52314 5.94927 8.35969 6.31963 7.01449C6.4946 6.35277 6.77428 5.70513 7.10377 5.10741C7.43327 4.50712 7.79341 3.93756 8.24423 3.41023C9.57753 1.84872 11.5673 0.662237 13.58 0.236022C14.1611 0.11315 14.8239 0.0209955 15.1636 0.00691635C15.5812 -0.00972264 15.8251 0.0017967 16.0793 0.0619531C16.1674 0.0824318 16.207 0.183546 16.1584 0.257781C16.1584 0.257781 15.6067 1.13581 15.6055 1.13709C15.4931 1.3086 15.267 1.29452 15.0831 1.26892L15.0818 1.27404Z" fill="#F2BE2F"/>
</svg>
